# xmcd
#
# Track frame offsets:
#	150
#	9843
#	23496
#	34689
#	45348
#	54808
#	64745
#	74754
#	89944
#	98316
#	108017
#	120103
#	133695
#	142806
#	160966
#
# Disc length: 2233 seconds
# Revision: 0
# Processed by: cddbd v1.5.2PL0 Copyright (c) Steve Scherf et al.
# Submitted via: dBpowerAMP V12.0
#
DISCID=ae08b70f
DTITLE=Roy Clark - A Christmas Collection
DYEAR=2013
DGENRE=Christmas
TTITLE0=CHRISTMAS TIME'S A COMIN
TTITLE1=HOME FOR THE HOLIDAYS
TTITLE2=LET IT SNOW-LET IT SNOW-LET IT SNOW
TTITLE3=O CHRISTMAS TREE
TTITLE4=SANTA CLAUS IS COMING TO TOWN
TTITLE5=SILENT NIGHT 
TTITLE6=JINGLE BELLS
TTITLE7=I'LL BE HOME FOR CHRISTMAS
TTITLE8=HERE COMES SANTA CLAUS
TTITLE9=AWAY IN A MANGER
TTITLE10=RUDOLPH THE RED NOSED REINDEER
TTITLE11=WHITE CHRISTMAS
TTITLE12=WINTER WONDERLAND
TTITLE13=THE LITTLE DRUMMER BOY
TTITLE14=WE WISH YOU A MERRY CHRISTMAS
EXTD=
EXTT0=
EXTT1=
EXTT2=
EXTT3=
EXTT4=
EXTT5=
EXTT6=
EXTT7=
EXTT8=
EXTT9=
EXTT10=
EXTT11=
EXTT12=
EXTT13=
EXTT14=
PLAYORDER=
